{
  "accessors": [
    {
      "bufferView": 2,
      "componentType": 5126,
      "count": 311,
      "max": [3.2888083457946777, 10.45169734954834, 3.288459539413452],
      "min": [-3.31559419631958, -0.07550716400146484, -3.22607421875],
      "type": "VEC3"
    },
    {
      "bufferView": 2,
      "byteOffset": 3732,
      "componentType": 5126,
      "count": 311,
      "max": [0.7071067690849304, 0.7071067690849304, 1.0],
      "min": [-0.7071067690849304, -0.7970975041389465, -1.0],
      "type": "VEC3"
    },
    {
      "bufferView": 1,
      "componentType": 5126,
      "count": 311,
      "max": [0.9981412291526794, 0.9993330240249634],
      "min": [0.0006522871553897858, 0.0006655529141426086],
      "type": "VEC2"
    },
    {
      "bufferView": 0,
      "componentType": 5125,
      "count": 642,
      "type": "SCALAR"
    }
  ],
  "asset": {
    "extras": {
      "author": "lilithelotor (https://sketchfab.com/lilithelotor)",
      "license": "CC-BY-4.0 (http://creativecommons.org/licenses/by/4.0/)",
      "source": "https://sketchfab.com/3d-models/cat-tree-7e117b7dd09b447bb7b74e7768e3bade",
      "title": "Cat Tree"
    },
    "generator": "Sketchfab-12.66.0",
    "version": "2.0"
  },
  "bufferViews": [
    {
      "buffer": 0,
      "byteLength": 2568,
      "name": "floatBufferViews",
      "target": 34963
    },
    {
      "buffer": 0,
      "byteLength": 2488,
      "byteOffset": 2568,
      "byteStride": 8,
      "name": "floatBufferViews",
      "target": 34962
    },
    {
      "buffer": 0,
      "byteLength": 7464,
      "byteOffset": 5056,
      "byteStride": 12,
      "name": "floatBufferViews",
      "target": 34962
    }
  ],
  "buffers": [
    {
      "byteLength": 12520,
      "uri": "cat_tower_2.bin"
    }
  ],
  "extensionsRequired": ["KHR_materials_pbrSpecularGlossiness"],
  "extensionsUsed": ["KHR_materials_pbrSpecularGlossiness"],
  "images": [
    {
      "uri": "textures/cat-tree-mat_diffuse.jpeg"
    },
    {
      "uri": "textures/cat-tree-mat_specularGlossiness.png"
    }
  ],
  "materials": [
    {
      "extensions": {
        "KHR_materials_pbrSpecularGlossiness": {
          "diffuseFactor": [1.0, 1.0, 1.0, 1.0],
          "diffuseTexture": {
            "index": 0
          },
          "glossinessFactor": 0.5,
          "specularFactor": [1.0, 1.0, 1.0],
          "specularGlossinessTexture": {
            "index": 1
          }
        }
      },
      "name": "cat-tree-mat"
    }
  ],
  "meshes": [
    {
      "name": "Object_0",
      "primitives": [
        {
          "attributes": {
            "NORMAL": 1,
            "POSITION": 0,
            "TEXCOORD_0": 2
          },
          "indices": 3,
          "material": 0,
          "mode": 4
        }
      ]
    }
  ],
  "nodes": [
    {
      "children": [1],
      "matrix": [
        1.0, 0.0, 0.0, 0.0, 0.0, 2.220446049250313e-16, -1.0, 0.0, 0.0, 1.0,
        2.220446049250313e-16, 0.0, 0.0, 0.0, 0.0, 1.0
      ],
      "name": "Sketchfab_model"
    },
    {
      "children": [2],
      "name": "root"
    },
    {
      "children": [3],
      "matrix": [
        1.0, 0.0, 0.0, 0.0, 0.0, 2.220446049250313e-16, 1.0, 0.0, 0.0, -1.0,
        2.220446049250313e-16, 0.0, 0.0, 0.0, 0.0, 1.0
      ],
      "name": "GLTF_SceneRootNode"
    },
    {
      "children": [4],
      "name": "Cube_0"
    },
    {
      "mesh": 0,
      "name": "Object_4"
    }
  ],
  "samplers": [
    {
      "magFilter": 9729,
      "minFilter": 9987,
      "wrapS": 10497,
      "wrapT": 10497
    }
  ],
  "scene": 0,
  "scenes": [
    {
      "name": "Sketchfab_Scene",
      "nodes": [0]
    }
  ],
  "textures": [
    {
      "sampler": 0,
      "source": 0
    },
    {
      "sampler": 0,
      "source": 1
    }
  ]
}
