{"accessors" : [{"bufferView" : 0, "byteOffset" : 0, "componentType" : 5123, "count" : 43044, "type" : "SCALAR", "max" : [34155], "min" : [0]}, {"bufferView" : 1, "byteOffset" : 0, "componentType" : 5126, "count" : 34156, "type" : "VEC3", "max" : [2110.440185546875, 2687.539306640625, 414.789794921875], "min" : [-2374.893798828125, -6.632269859313965, -2113.34033203125], "name" : "POSITION"}], "asset" : {"generator" : "Aspose.3D 23.9.0", "version" : "2.0"}, "buffers" : [{"uri" : "data:application/octet-stream;base64,", "byteLength" : 602624}], "bufferViews" : [{"buffer" : 0, "byteOffset" : 0, "byteLength" : 86088, "target" : 34963}, {"buffer" : 0, "byteOffset" : 86092, "byteLength" : 516528, "byteStride" : 12, "target" : 34962}], "materials" : [{"name" : "Material", "pbrMetallicRoughness" : {"baseColorFactor" : [0.7529411764705882, 0.7529411764705882, 0.7529411764705882, 1], "metallicFactor" : 0, "roughnessFactor" : 0}, "emissiveFactor" : [0, 0, 0], "alphaMode" : "OPAQUE", "doubleSided" : false}], "meshes" : [{"primitives" : [{"attributes" : {"POSITION" : 1}, "indices" : 0, "material" : 0, "mode" : 4}], "name" : "Mesh1"}], "nodes" : [{"matrix" : [-0.10000000149011612, 0, 0, 0, 0, 0.10000000149011612, -4.371139006309477E-09, 0, 0, -4.371139006309477E-09, -0.10000000149011612, 0, 0, 0, 0, 1], "mesh" : 0, "name" : "Mesh1"}], "scene" : 0, "scenes" : [{"nodes" : [0]}]}