{
  "accessors": [
    {
      "bufferView": 2,
      "componentType": 5126,
      "count": 59960,
      "max": [1.7675422430038452, 1.1796727180480957, 0.889143168926239],
      "min": [-1.9993480443954468, -1.2108105421066284, -0.8891130685806274],
      "type": "VEC3"
    },
    {
      "bufferView": 2,
      "byteOffset": 719520,
      "componentType": 5126,
      "count": 59960,
      "max": [0.9999393224716187, 0.9946563839912415, 0.7878929376602173],
      "min": [-0.9999206066131592, -0.9996770024299622, -0.9999922513961792],
      "type": "VEC3"
    },
    {
      "bufferView": 1,
      "componentType": 5126,
      "count": 59960,
      "max": [0.9998935461044312, 0.8947767019271851],
      "min": [9.255487384507433e-5, 7.909629493951797e-5],
      "type": "VEC2"
    },
    {
      "bufferView": 0,
      "componentType": 5125,
      "count": 348948,
      "type": "SCALAR"
    }
  ],
  "asset": {
    "extras": {
      "author": "Léonard_Doye Alias Leoskateman (https://sketchfab.com/leoskateman)",
      "license": "CC-BY-4.0 (http://creativecommons.org/licenses/by/4.0/)",
      "source": "https://sketchfab.com/3d-models/sleepy-comfy-cat-2c2baa9563db4f20ba23f869ec3288dc",
      "title": "Sleepy Comfy Cat"
    },
    "generator": "Sketchfab-12.68.0",
    "version": "2.0"
  },
  "bufferViews": [
    {
      "buffer": 0,
      "byteLength": 1395792,
      "name": "floatBufferViews",
      "target": 34963
    },
    {
      "buffer": 0,
      "byteLength": 479680,
      "byteOffset": 1395792,
      "byteStride": 8,
      "name": "floatBufferViews",
      "target": 34962
    },
    {
      "buffer": 0,
      "byteLength": 1439040,
      "byteOffset": 1875472,
      "byteStride": 12,
      "name": "floatBufferViews",
      "target": 34962
    }
  ],
  "buffers": [
    {
      "byteLength": 3314512,
      "uri": "sleepingcat3.bin"
    }
  ],
  "images": [
    {
      "uri": "textures/material0_baseColor.jpeg"
    }
  ],
  "materials": [
    {
      "doubleSided": true,
      "name": "material0",
      "pbrMetallicRoughness": {
        "baseColorTexture": {
          "index": 0
        },
        "metallicFactor": 0.0,
        "roughnessFactor": 0.9479745224812579
      }
    }
  ],
  "meshes": [
    {
      "name": "Model_material0_0",
      "primitives": [
        {
          "attributes": {
            "NORMAL": 1,
            "POSITION": 0,
            "TEXCOORD_0": 2
          },
          "indices": 3,
          "material": 0,
          "mode": 4
        }
      ]
    }
  ],
  "nodes": [
    {
      "children": [1],
      "matrix": [
        0.8973328471183777, -0.11826571822166433, -0.42521408200263977, 0.0,
        -0.20382612943649292, 0.7434926033020021, -0.6369251608848571, 0.0,
        0.39146995544433594, 0.6582036018371581, 0.6430546641349794, 0.0,
        -0.008720495738089085, -0.025287128984928117, -0.054926510900259025, 1.0
      ],
      "name": "Sketchfab_model"
    },
    {
      "children": [2],
      "matrix": [
        1.0, 0.0, 0.0, 0.0, 0.0, -1.0, 0.0, 0.0, 0.0, 0.0, -1.0, 0.0, 0.0, 0.0,
        0.0, 1.0
      ],
      "name": "model.fbx"
    },
    {
      "children": [3],
      "name": "RootNode"
    },
    {
      "children": [4],
      "name": "Model"
    },
    {
      "mesh": 0,
      "name": "Model_material0_0"
    }
  ],
  "samplers": [
    {
      "magFilter": 9729,
      "minFilter": 9987,
      "wrapS": 10497,
      "wrapT": 10497
    }
  ],
  "scene": 0,
  "scenes": [
    {
      "name": "Sketchfab_Scene",
      "nodes": [0]
    }
  ],
  "textures": [
    {
      "sampler": 0,
      "source": 0
    }
  ]
}
