{
  "accessors": [
    {
      "bufferView": 2,
      "componentType": 5126,
      "count": 15501,
      "max": [5.576645851135254, -3.5490880012512207, 3.5866949558258057],
      "min": [-5.358368873596191, -9.516250610351563, -6.449440002441406],
      "type": "VEC3"
    },
    {
      "bufferView": 2,
      "byteOffset": 186012,
      "componentType": 5126,
      "count": 15501,
      "max": [0.999350905418396, 0.9998617768287659, 0.9992183446884155],
      "min": [-0.9999852180480957, -0.9957075119018555, -0.9988560080528259],
      "type": "VEC3"
    },
    {
      "bufferView": 1,
      "componentType": 5126,
      "count": 15501,
      "max": [0.998386025428772, 0.9990159869194031],
      "min": [0.0016680000117048621, 0.0015800000401213765],
      "type": "VEC2"
    },
    {
      "bufferView": 0,
      "componentType": 5125,
      "count": 50229,
      "type": "SCALAR"
    }
  ],
  "asset": {
    "extras": {
      "author": "mustafasahinfb (https://sketchfab.com/mustafasahinfb)",
      "license": "CC-BY-4.0 (http://creativecommons.org/licenses/by/4.0/)",
      "source": "https://sketchfab.com/3d-models/cat-69db9de4d5c446a895cec3c2a048f7a8",
      "title": "Cat"
    },
    "generator": "Sketchfab-12.66.0",
    "version": "2.0"
  },
  "bufferViews": [
    {
      "buffer": 0,
      "byteLength": 200916,
      "name": "floatBufferViews",
      "target": 34963
    },
    {
      "buffer": 0,
      "byteLength": 124008,
      "byteOffset": 200916,
      "byteStride": 8,
      "name": "floatBufferViews",
      "target": 34962
    },
    {
      "buffer": 0,
      "byteLength": 372024,
      "byteOffset": 324924,
      "byteStride": 12,
      "name": "floatBufferViews",
      "target": 34962
    }
  ],
  "buffers": [
    {
      "byteLength": 696948,
      "uri": "sleepingcat1.bin"
    }
  ],
  "images": [
    {
      "uri": "textures/catr_baseColor.jpeg"
    }
  ],
  "materials": [
    {
      "doubleSided": true,
      "name": "catr",
      "pbrMetallicRoughness": {
        "baseColorTexture": {
          "index": 0
        },
        "metallicFactor": 0.0,
        "roughnessFactor": 0.6
      }
    }
  ],
  "meshes": [
    {
      "name": "default_catr_0",
      "primitives": [
        {
          "attributes": {
            "NORMAL": 1,
            "POSITION": 0,
            "TEXCOORD_0": 2
          },
          "indices": 3,
          "material": 0,
          "mode": 4
        }
      ]
    }
  ],
  "nodes": [
    {
      "children": [1],
      "matrix": [
        0.09130330383777618, 0.0, 0.0, 0.0, 0.0, 2.0273406029009108e-17,
        -0.09130330383777618, 0.0, 0.0, 0.09130330383777618,
        2.0273406029009108e-17, 0.0, 0.0, 0.0, 0.0, 1.0
      ],
      "name": "Sketchfab_model"
    },
    {
      "children": [2],
      "matrix": [
        1.0, 0.0, 0.0, 0.0, 0.0, 0.0, 1.0, 0.0, 0.0, -1.0, 0.0, 0.0, 0.0, 0.0,
        0.0, 1.0
      ],
      "name": "c257a6fedd2d45879a34fcb463f05917.fbx"
    },
    {
      "children": [3],
      "name": "RootNode"
    },
    {
      "children": [4],
      "matrix": [
        0.9551059690702869, 0.2959303769511778, -0.01406413324176159, 0.0,
        -0.23150655429675765, 0.775118889526341, 0.5878736449417464, 0.0,
        0.18487104468777857, -0.5582256883169977, 0.8088305000054483, 0.0, 0.0,
        4.539059638977051, 4.397835731506348, 1.0
      ],
      "name": "default"
    },
    {
      "mesh": 0,
      "name": "default_catr_0"
    }
  ],
  "samplers": [
    {
      "magFilter": 9729,
      "minFilter": 9987,
      "wrapS": 10497,
      "wrapT": 10497
    }
  ],
  "scene": 0,
  "scenes": [
    {
      "name": "Sketchfab_Scene",
      "nodes": [0]
    }
  ],
  "textures": [
    {
      "sampler": 0,
      "source": 0
    }
  ]
}
