{
  "accessors": [
    {
      "bufferView": 2,
      "componentType": 5126,
      "count": 10444,
      "max": [1.3591099977493286, 0.508126974105835, 0.8049860000610352],
      "min": [-1.2673219442367554, -0.7750790119171143, -0.024369999766349792],
      "type": "VEC3"
    },
    {
      "bufferView": 2,
      "byteOffset": 125328,
      "componentType": 5126,
      "count": 10444,
      "max": [0.9998993873596191, 0.9999099373817444, 0.9999761581420898],
      "min": [-0.9999521970748901, -0.9999085664749146, -0.9970885515213013],
      "type": "VEC3"
    },
    {
      "bufferView": 3,
      "componentType": 5126,
      "count": 10444,
      "max": [0.9999812245368958, 0.9998371601104736, 0.9997507929801941, 1.0],
      "min": [
        -0.9999623894691467, -0.9999023675918579, -0.9977123141288757, -1.0
      ],
      "type": "VEC4"
    },
    {
      "bufferView": 1,
      "componentType": 5126,
      "count": 10444,
      "max": [0.9951949715614319, 0.9992719888687134],
      "min": [0.0039059999398887157, 0.0039059999398887157],
      "type": "VEC2"
    },
    {
      "bufferView": 0,
      "componentType": 5125,
      "count": 37461,
      "type": "SCALAR"
    }
  ],
  "asset": {
    "extras": {
      "author": "mustafasahinfb (https://sketchfab.com/mustafasahinfb)",
      "license": "CC-BY-4.0 (http://creativecommons.org/licenses/by/4.0/)",
      "source": "https://sketchfab.com/3d-models/cat-3d-model-scan-0e95cacb599f40578b589be004a77196",
      "title": "Cat 3D model Scan"
    },
    "generator": "Sketchfab-12.66.0",
    "version": "2.0"
  },
  "bufferViews": [
    {
      "buffer": 0,
      "byteLength": 149844,
      "name": "floatBufferViews",
      "target": 34963
    },
    {
      "buffer": 0,
      "byteLength": 83552,
      "byteOffset": 149844,
      "byteStride": 8,
      "name": "floatBufferViews",
      "target": 34962
    },
    {
      "buffer": 0,
      "byteLength": 250656,
      "byteOffset": 233396,
      "byteStride": 12,
      "name": "floatBufferViews",
      "target": 34962
    },
    {
      "buffer": 0,
      "byteLength": 167104,
      "byteOffset": 484052,
      "byteStride": 16,
      "name": "floatBufferViews",
      "target": 34962
    }
  ],
  "buffers": [
    {
      "byteLength": 651156,
      "uri": "sleepingcat2.bin"
    }
  ],
  "images": [
    {
      "uri": "textures/kedi2lw_baseColor.jpeg"
    },
    {
      "uri": "textures/kedi2lw_normal.jpeg"
    }
  ],
  "materials": [
    {
      "doubleSided": true,
      "name": "kedi2lw",
      "normalTexture": {
        "index": 1
      },
      "pbrMetallicRoughness": {
        "baseColorTexture": {
          "index": 0
        },
        "metallicFactor": 0.0,
        "roughnessFactor": 0.6
      }
    }
  ],
  "meshes": [
    {
      "name": "Object_0",
      "primitives": [
        {
          "attributes": {
            "NORMAL": 1,
            "POSITION": 0,
            "TANGENT": 2,
            "TEXCOORD_0": 3
          },
          "indices": 4,
          "material": 0,
          "mode": 4
        }
      ]
    }
  ],
  "nodes": [
    {
      "children": [1],
      "matrix": [
        0.4367017447948456, 0.0, 0.0, 0.0, 0.0, 9.696726639304333e-17,
        -0.4367017447948456, 0.0, 0.0, 0.4367017447948456,
        9.696726639304333e-17, 0.0, 0.0, 0.0, 0.0, 1.0
      ],
      "name": "Sketchfab_model"
    },
    {
      "children": [2],
      "name": "s2.obj.cleaner.gles"
    },
    {
      "mesh": 0,
      "name": "Object_2"
    }
  ],
  "samplers": [
    {
      "magFilter": 9729,
      "minFilter": 9987,
      "wrapS": 10497,
      "wrapT": 10497
    }
  ],
  "scene": 0,
  "scenes": [
    {
      "name": "Sketchfab_Scene",
      "nodes": [0]
    }
  ],
  "textures": [
    {
      "sampler": 0,
      "source": 0
    },
    {
      "sampler": 0,
      "source": 1
    }
  ]
}
